HIERARCHY
ROOT Hips
{
  OFFSET 0.0000 94.0000 0.0000
  CHANNELS 6 Xposition Yposition Zposition Yrotation Xrotation Zrotation
  JOINT Spine1
  {
    OFFSET 0.0000 8.4838 -3.9483
    CHANNELS 3 Yrotation Xrotation Zrotation
    JOINT Spine2
    {
      OFFSET 0.0000 -7.5500 0.0000
      CHANNELS 3 Yrotation Xrotation Zrotation
      JOINT Spine3
      {
        OFFSET 0.0000 -7.5500 0.0000
        CHANNELS 3 Yrotation Xrotation Zrotation
        JOINT Spine4
        {
          OFFSET 0.0000 -12.7487 0.0000
          CHANNELS 3 Yrotation Xrotation Zrotation
          JOINT Neck
          {
            OFFSET 0.0000 -20.1503 0.0000
            CHANNELS 3 Yrotation Xrotation Zrotation
            JOINT Head
            {
              OFFSET 0.0000 -11.1009 0.0000
              CHANNELS 3 Yrotation Xrotation Zrotation
              JOINT HeadTip
              {
                OFFSET 0.0000 -16.8536 0.0000
                CHANNELS 3 Yrotation Xrotation Zrotation
                End Site
                {
                  OFFSET 0.0000 -8.4268 0.0000
                }
              }
            }
          }
          JOINT RightShoulder
          {
            OFFSET 7.0000 -12.3681 1.9038
            CHANNELS 3 Yrotation Xrotation Zrotation
            JOINT RightArm
            {
              OFFSET 0.0000 -13.6078 0.0000
              CHANNELS 3 Yrotation Xrotation Zrotation
              JOINT RightForeArm
              {
                OFFSET 0.0000 -27.1022 0.0000
                CHANNELS 3 Yrotation Xrotation Zrotation
                JOINT RightHand
                {
                  OFFSET 0.0000 -28.3000 0.0000
                  CHANNELS 3 Yrotation Xrotation Zrotation
                  JOINT RightFinger1Metacarpal
                  {
                    OFFSET -2.7849 -2.0780 0.1030
                    CHANNELS 3 Yrotation Xrotation Zrotation
                    JOINT RightFinger1Proximal
                    {
                      OFFSET 0.0000 -3.9891 0.0000
                      CHANNELS 3 Yrotation Xrotation Zrotation
                      JOINT RightFinger1Distal
                      {
                        OFFSET 0.0000 -3.0278 0.0000
                        CHANNELS 3 Yrotation Xrotation Zrotation
                        JOINT RightFinger1Tip
                        {
                          OFFSET 0.0000 -3.4590 0.0000
                          CHANNELS 3 Yrotation Xrotation Zrotation
                          End Site
                          {
                            OFFSET 0.0000 -1.7295 0.0000
                          }
                        }
                      }
                    }
                  }
                  JOINT RightFinger5Metacarpal
                  {
                    OFFSET 1.4876 -2.4879 0.1030
                    CHANNELS 3 Yrotation Xrotation Zrotation
                    JOINT RightFinger5Proximal
                    {
                      OFFSET 0.0000 -4.7463 0.0000
                      CHANNELS 3 Yrotation Xrotation Zrotation
                      JOINT RightFinger5Medial
                      {
                        OFFSET 0.0000 -3.5000 0.0000
                        CHANNELS 3 Yrotation Xrotation Zrotation
                        JOINT RightFinger5Distal
                        {
                          OFFSET 0.0000 -2.2000 0.0000
                          CHANNELS 3 Yrotation Xrotation Zrotation
                          JOINT RightFinger5Tip
                          {
                            OFFSET 0.0000 -2.2409 0.0000
                            CHANNELS 3 Yrotation Xrotation Zrotation
                            End Site
                            {
                              OFFSET 0.0000 -1.1205 0.0000
                            }
                          }
                        }
                      }
                    }
                  }
                  JOINT RightFinger4Metacarpal
                  {
                    OFFSET 0.5475 -2.7430 0.1030
                    CHANNELS 3 Yrotation Xrotation Zrotation
                    JOINT RightFinger4Proximal
                    {
                      OFFSET 0.0000 -5.0325 0.0000
                      CHANNELS 3 Yrotation Xrotation Zrotation
                      JOINT RightFinger4Medial
                      {
                        OFFSET 0.0000 -4.3000 0.0000
                        CHANNELS 3 Yrotation Xrotation Zrotation
                        JOINT RightFinger4Distal
                        {
                          OFFSET 0.0000 -2.7732 0.0000
                          CHANNELS 3 Yrotation Xrotation Zrotation
                          JOINT RightFinger4Tip
                          {
                            OFFSET 0.0000 -2.7000 0.0000
                            CHANNELS 3 Yrotation Xrotation Zrotation
                            End Site
                            {
                              OFFSET 0.0000 -1.3500 0.0000
                            }
                          }
                        }
                      }
                    }
                  }
                  JOINT RightFinger3Metacarpal
                  {
                    OFFSET -0.5447 -2.7674 0.1030
                    CHANNELS 3 Yrotation Xrotation Zrotation
                    JOINT RightFinger3Proximal
                    {
                      OFFSET 0.0000 -5.3650 0.0000
                      CHANNELS 3 Yrotation Xrotation Zrotation
                      JOINT RightFinger3Medial
                      {
                        OFFSET 0.0000 -4.7000 0.0000
                        CHANNELS 3 Yrotation Xrotation Zrotation
                        JOINT RightFinger3Distal
                        {
                          OFFSET 0.0000 -3.1000 0.0000
                          CHANNELS 3 Yrotation Xrotation Zrotation
                          JOINT RightFinger3Tip
                          {
                            OFFSET 0.0000 -2.9982 0.0000
                            CHANNELS 3 Yrotation Xrotation Zrotation
                            End Site
                            {
                              OFFSET 0.0000 -1.4991 0.0000
                            }
                          }
                        }
                      }
                    }
                  }
                  JOINT RightFinger2Metacarpal
                  {
                    OFFSET -1.6034 -2.6456 0.1030
                    CHANNELS 3 Yrotation Xrotation Zrotation
                    JOINT RightFinger2Proximal
                    {
                      OFFSET 0.0000 -5.4138 0.0000
                      CHANNELS 3 Yrotation Xrotation Zrotation
                      JOINT RightFinger2Medial
                      {
                        OFFSET 0.0000 -4.5000 0.0000
                        CHANNELS 3 Yrotation Xrotation Zrotation
                        JOINT RightFinger2Distal
                        {
                          OFFSET 0.0000 -2.7685 0.0000
                          CHANNELS 3 Yrotation Xrotation Zrotation
                          JOINT RightFinger2Tip
                          {
                            OFFSET 0.0000 -2.7132 0.0000
                            CHANNELS 3 Yrotation Xrotation Zrotation
                            End Site
                            {
                              OFFSET 0.0000 -1.3566 0.0000
                            }
                          }
                        }
                      }
                    }
                  }
                }
              }
            }
          }
          JOINT LeftShoulder
          {
            OFFSET -7.0000 -12.3681 1.9038
            CHANNELS 3 Yrotation Xrotation Zrotation
            JOINT LeftArm
            {
              OFFSET 0.0000 -13.6078 0.0000
              CHANNELS 3 Yrotation Xrotation Zrotation
              JOINT LeftForeArm
              {
                OFFSET 0.0001 -27.1022 0.0000
                CHANNELS 3 Yrotation Xrotation Zrotation
                JOINT LeftHand
                {
                  OFFSET 0.0000 -28.3000 0.0000
                  CHANNELS 3 Yrotation Xrotation Zrotation
                  JOINT LeftFinger5Metacarpal
                  {
                    OFFSET -1.4876 -2.4879 0.1030
                    CHANNELS 3 Yrotation Xrotation Zrotation
                    JOINT LeftFinger5Proximal
                    {
                      OFFSET 0.0000 -4.7463 0.0000
                      CHANNELS 3 Yrotation Xrotation Zrotation
                      JOINT LeftFinger5Medial
                      {
                        OFFSET 0.0000 -3.5000 0.0000
                        CHANNELS 3 Yrotation Xrotation Zrotation
                        JOINT LeftFinger5Distal
                        {
                          OFFSET 0.0000 -2.2000 0.0000
                          CHANNELS 3 Yrotation Xrotation Zrotation
                          JOINT LeftFinger5Tip
                          {
                            OFFSET 0.0000 -2.2409 0.0000
                            CHANNELS 3 Yrotation Xrotation Zrotation
                            End Site
                            {
                              OFFSET 0.0000 -1.1205 0.0000
                            }
                          }
                        }
                      }
                    }
                  }
                  JOINT LeftFinger4Metacarpal
                  {
                    OFFSET -0.5475 -2.7430 0.1030
                    CHANNELS 3 Yrotation Xrotation Zrotation
                    JOINT LeftFinger4Proximal
                    {
                      OFFSET 0.0000 -5.0325 0.0000
                      CHANNELS 3 Yrotation Xrotation Zrotation
                      JOINT LeftFinger4Medial
                      {
                        OFFSET 0.0000 -4.3000 0.0000
                        CHANNELS 3 Yrotation Xrotation Zrotation
                        JOINT LeftFinger4Distal
                        {
                          OFFSET 0.0000 -2.7732 0.0000
                          CHANNELS 3 Yrotation Xrotation Zrotation
                          JOINT LeftFinger4Tip
                          {
                            OFFSET 0.0000 -2.7000 0.0000
                            CHANNELS 3 Yrotation Xrotation Zrotation
                            End Site
                            {
                              OFFSET 0.0000 -1.3500 0.0000
                            }
                          }
                        }
                      }
                    }
                  }
                  JOINT LeftFinger3Metacarpal
                  {
                    OFFSET 0.5447 -2.7674 0.1030
                    CHANNELS 3 Yrotation Xrotation Zrotation
                    JOINT LeftFinger3Proximal
                    {
                      OFFSET 0.0000 -5.3650 0.0000
                      CHANNELS 3 Yrotation Xrotation Zrotation
                      JOINT LeftFinger3Medial
                      {
                        OFFSET 0.0000 -4.7000 0.0000
                        CHANNELS 3 Yrotation Xrotation Zrotation
                        JOINT LeftFinger3Distal
                        {
                          OFFSET 0.0000 -3.1000 0.0000
                          CHANNELS 3 Yrotation Xrotation Zrotation
                          JOINT LeftFinger3Tip
                          {
                            OFFSET 0.0000 -2.9982 0.0000
                            CHANNELS 3 Yrotation Xrotation Zrotation
                            End Site
                            {
                              OFFSET 0.0000 -1.4991 0.0000
                            }
                          }
                        }
                      }
                    }
                  }
                  JOINT LeftFinger2Metacarpal
                  {
                    OFFSET 1.6034 -2.6456 0.1030
                    CHANNELS 3 Yrotation Xrotation Zrotation
                    JOINT LeftFinger2Proximal
                    {
                      OFFSET 0.0000 -5.4138 0.0000
                      CHANNELS 3 Yrotation Xrotation Zrotation
                      JOINT LeftFinger2Medial
                      {
                        OFFSET 0.0000 -4.5000 0.0000
                        CHANNELS 3 Yrotation Xrotation Zrotation
                        JOINT LeftFinger2Distal
                        {
                          OFFSET 0.0000 -2.7685 0.0000
                          CHANNELS 3 Yrotation Xrotation Zrotation
                          JOINT LeftFinger2Tip
                          {
                            OFFSET 0.0000 -2.7131 0.0000
                            CHANNELS 3 Yrotation Xrotation Zrotation
                            End Site
                            {
                              OFFSET 0.0000 -1.3566 0.0000
                            }
                          }
                        }
                      }
                    }
                  }
                  JOINT LeftFinger1Metacarpal
                  {
                    OFFSET 2.7849 -2.0780 0.1030
                    CHANNELS 3 Yrotation Xrotation Zrotation
                    JOINT LeftFinger1Proximal
                    {
                      OFFSET 0.0000 -3.9891 0.0000
                      CHANNELS 3 Yrotation Xrotation Zrotation
                      JOINT LeftFinger1Distal
                      {
                        OFFSET 0.0000 -3.0278 0.0000
                        CHANNELS 3 Yrotation Xrotation Zrotation
                        JOINT LeftFinger1Tip
                        {
                          OFFSET 0.0000 -3.4590 0.0000
                          CHANNELS 3 Yrotation Xrotation Zrotation
                          End Site
                          {
                            OFFSET 0.0000 -1.7295 0.0000
                          }
                        }
                      }
                    }
                  }
                }
              }
            }
          }
        }
      }
    }
  }
  JOINT RightThigh
  {
    OFFSET -8.1000 0.0000 0.0000
    CHANNELS 3 Yrotation Xrotation Zrotation
    JOINT RightShin
    {
      OFFSET 0.0000 -43.2000 0.0000
      CHANNELS 3 Yrotation Xrotation Zrotation
      JOINT RightFoot
      {
        OFFSET 0.0000 -43.3000 -0.0626
        CHANNELS 3 Yrotation Xrotation Zrotation
        JOINT RightToe
        {
          OFFSET 0.0000 -13.1694 6.2394
          CHANNELS 3 Yrotation Xrotation Zrotation
          JOINT RightToeTip
          {
            OFFSET 0.0000 -7.4457 1.2571
            CHANNELS 3 Yrotation Xrotation Zrotation
            End Site
            {
              OFFSET 0.0000 -3.7228 0.6286
            }
          }
        }
      }
    }
  }
  JOINT LeftThigh
  {
    OFFSET 8.1000 0.0000 0.0000
    CHANNELS 3 Yrotation Xrotation Zrotation
    JOINT LeftShin
    {
      OFFSET 0.0000 -43.2000 0.0000
      CHANNELS 3 Yrotation Xrotation Zrotation
      JOINT LeftFoot
      {
        OFFSET 0.0000 -43.3000 -0.0626
        CHANNELS 3 Yrotation Xrotation Zrotation
        JOINT LeftToe
        {
          OFFSET 0.0000 -13.1694 6.2394
          CHANNELS 3 Yrotation Xrotation Zrotation
          JOINT LeftToeTip
          {
            OFFSET 0.0000 -7.4457 1.2571
            CHANNELS 3 Yrotation Xrotation Zrotation
            End Site
            {
              OFFSET 0.0000 -3.7228 0.6286
            }
          }
        }
      }
    }
  }
}
MOTION
Frames: 4
Frame Time: 0.010000
0.0000 94.0000 0.0000 0.0000 0.0000 0.0000 0.0000 0.0001 180.0000 0.0000 0.0000 0.0000 0.0000 0.0000 0.0000 0.0000 0.0000 0.0000 0.0000 0.0000 0.0000 0.0000 0.0000 0.0000 0.0000 0.0000 0.0000 0.0000 0.0000 90.0001 89.9999 0.0000 0.0000 0.0000 0.0000 0.0001 0.0000 0.0000 0.0000 40.8933 20.7046 -22.2077 -4.1067 -20.7048 22.2077 0.0000 0.0000 0.0000 0.0000 0.0003 0.0000 -0.0001 -0.0001 20.0000 0.0000 0.0001 -20.0000 0.0000 0.0000 0.0000 0.0000 0.0000 0.0000 0.0000 0.0000 0.0000 0.0000 -0.0001 10.0000 -0.0001 0.0000 -10.0000 0.0000 0.0000 0.0000 0.0000 0.0000 0.0000 0.0000 0.0000 0.0000 0.0000 -0.0001 -0.0001 -0.0001 0.0001 0.0000 0.0000 0.0000 0.0000 0.0000 0.0000 0.0000 0.0000 0.0000 0.0000 0.0000 -0.0001 -10.0001 -0.0001 0.0001 10.0000 0.0000 0.0000 0.0000 0.0000 0.0000 0.0000 0.0000 0.0000 0.0000 0.0000 0.0000 -90.0000 -89.9999 0.0000 0.0000 0.0001 0.0000 0.0001 0.0000 0.0000 0.0000 0.0001 -0.0001 -20.0000 0.0000 0.0001 20.0000 -0.0003 0.0000 -0.0001 0.0000 0.0000 0.0000 0.0000 0.0000 0.0000 0.0000 -0.0001 -9.9999 -0.0002 0.0001 9.9999 0.0000 0.0000 0.0000 0.0000 0.0000 0.0000 0.0000 0.0000 0.0000 -0.0001 0.0000 0.0000 0.0000 0.0000 0.0000 0.0000 0.0001 0.0000 0.0001 0.0000 0.0000 0.0000 0.0000 0.0000 0.0000 0.0000 10.0001 -0.0001 0.0000 -10.0001 0.0000 0.0000 0.0000 0.0000 0.0000 0.0000 0.0002 0.0000 0.0000 -40.8933 20.7047 22.2076 4.1067 -20.7047 -22.2077 0.0000 0.0000 0.0000 0.0000 0.0004 0.0000 90.0000 0.0000 0.0000 0.0000 0.0000 0.0000 -270.0000 90.0000 0.0000 0.0000 0.0000 0.0000 0.0000 0.0000 0.0000 -90.0000 0.0000 0.0000 0.0000 -0.0001 0.0000 270.0002 90.0000 0.0000 0.0000 0.0000 0.0000 0.0000 0.0000 0.0000 
-0.0120 93.9015 2.9110 -1.3690 1.0003 -0.2518 0.6033 0.2721 -179.9817 -0.6033 -0.2721 0.0183 -0.6051 -0.2729 0.0183 0.0000 0.0000 0.0000 -0.3779 0.3234 0.0589 -0.3779 0.3234 0.0589 0.0000 0.0000 0.0000 16.7894 0.7117 90.1761 167.2602 -79.7392 -75.5574 2.9844 0.3647 -4.6110 -0.0122 -0.3190 0.3094 40.8933 20.7046 -22.2077 -4.1067 -20.7048 22.2077 0.0000 0.0000 0.0000 0.0000 0.0003 0.0000 -0.0001 -0.0001 20.0000 0.0000 0.0001 -20.0000 0.0000 0.0000 0.0000 0.0000 0.0000 0.0000 0.0000 0.0000 0.0000 0.0000 -0.0001 10.0000 -0.0001 0.0000 -10.0000 0.0000 0.0000 0.0000 0.0000 0.0000 0.0000 0.0000 0.0000 0.0000 0.0000 -0.0001 -0.0001 -0.0001 0.0001 0.0000 0.0000 0.0000 0.0000 0.0000 0.0000 0.0000 0.0000 0.0000 0.0000 0.0000 -0.0001 -10.0001 -0.0001 0.0001 10.0000 0.0000 0.0000 0.0000 0.0000 0.0000 0.0000 0.0000 0.0000 0.0000 -14.4491 0.1712 -90.3273 -169.1538 -79.3584 77.2549 1.1646 1.7488 3.3379 0.0053 -0.3174 -0.3004 0.0001 -0.0001 -20.0000 0.0000 0.0001 20.0000 -0.0003 0.0000 -0.0001 0.0000 0.0000 0.0000 0.0000 0.0000 0.0000 0.0000 -0.0001 -9.9999 -0.0002 0.0001 9.9999 0.0000 0.0000 0.0000 0.0000 0.0000 0.0000 0.0000 0.0000 0.0000 -0.0001 0.0000 0.0000 0.0000 0.0000 0.0000 0.0000 0.0001 0.0000 0.0001 0.0000 0.0000 0.0000 0.0000 0.0000 0.0000 0.0000 10.0001 -0.0001 0.0000 -10.0001 0.0000 0.0000 0.0000 0.0000 0.0000 0.0000 0.0002 0.0000 0.0000 -40.8933 20.7047 22.2076 4.1067 -20.7047 -22.2077 0.0000 0.0000 0.0000 0.0000 0.0004 0.0000 89.1800 -0.5528 -1.3777 1.6360 -0.1653 4.6354 -96.9326 85.6753 177.3428 0.0000 -0.0530 0.0000 0.0000 0.0000 0.0000 -87.1553 -0.8147 1.3611 -1.8852 -0.7438 -4.6465 111.3687 85.4528 -164.3148 0.0000 0.0000 0.0000 0.0000 0.0000 0.0000 
-0.0126 93.9028 2.9107 -1.3741 0.9991 -0.2612 0.6052 0.2735 -179.9798 -0.6052 -0.2735 0.0202 -0.6070 -0.2743 0.0203 0.0000 0.0000 0.0000 -0.3800 0.3216 0.0554 -0.3800 0.3216 0.0554 0.0000 0.0000 0.0000 16.7863 0.7128 90.1743 167.2489 -79.7410 -75.5417 2.9982 0.3639 -4.6113 -0.0121 -0.3185 0.3087 40.8933 20.7046 -22.2077 -4.1067 -20.7048 22.2077 0.0000 0.0000 0.0000 0.0000 0.0003 0.0000 -0.0001 -0.0001 20.0000 0.0000 0.0001 -20.0000 0.0000 0.0000 0.0000 0.0000 0.0000 0.0000 0.0000 0.0000 0.0000 0.0000 -0.0001 10.0000 -0.0001 0.0000 -10.0000 0.0000 0.0000 0.0000 0.0000 0.0000 0.0000 0.0000 0.0000 0.0000 0.0000 -0.0001 -0.0001 -0.0001 0.0001 0.0000 0.0000 0.0000 0.0000 0.0000 0.0000 0.0000 0.0000 0.0000 0.0000 0.0000 -0.0001 -10.0001 -0.0001 0.0001 10.0000 0.0000 0.0000 0.0000 0.0000 0.0000 0.0000 0.0000 0.0000 0.0000 -14.4518 0.1758 -90.3277 -169.1581 -79.3640 77.2595 1.1484 1.7483 3.3373 0.0053 -0.3174 -0.3004 0.0001 -0.0001 -20.0000 0.0000 0.0001 20.0000 -0.0003 0.0000 -0.0001 0.0000 0.0000 0.0000 0.0000 0.0000 0.0000 0.0000 -0.0001 -9.9999 -0.0002 0.0001 9.9999 0.0000 0.0000 0.0000 0.0000 0.0000 0.0000 0.0000 0.0000 0.0000 -0.0001 0.0000 0.0000 0.0000 0.0000 0.0000 0.0000 0.0001 0.0000 0.0001 0.0000 0.0000 0.0000 0.0000 0.0000 0.0000 0.0000 10.0001 -0.0001 0.0000 -10.0001 0.0000 0.0000 0.0000 0.0000 0.0000 0.0000 0.0002 0.0000 0.0000 -40.8933 20.7047 22.2076 4.1067 -20.7047 -22.2077 0.0000 0.0000 0.0000 0.0000 0.0004 0.0000 89.1877 -0.5519 -1.3716 1.6348 -0.1676 4.6320 -96.8464 85.6728 177.4303 0.0000 -0.0545 0.0000 0.0000 0.0000 0.0000 -87.1374 -0.8110 1.3618 -1.8982 -0.7482 -4.6457 111.4655 85.4516 -164.2173 0.0000 0.0000 0.0000 0.0000 0.0000 0.0000 
-0.0125 93.9040 2.9107 -1.3795 0.9996 -0.2700 0.6068 0.2738 -179.9778 -0.6068 -0.2738 0.0222 -0.6086 -0.2746 0.0222 0.0000 0.0000 0.0000 -0.3829 0.3209 0.0530 -0.3829 0.3209 0.0530 0.0000 0.0000 0.0000 16.7828 0.7122 90.1698 167.2411 -79.7460 -75.5296 3.0089 0.3626 -4.6125 -0.0121 -0.3186 0.3086 40.8933 20.7046 -22.2077 -4.1067 -20.7048 22.2077 0.0000 0.0000 0.0000 0.0000 0.0003 0.0000 -0.0001 -0.0001 20.0000 0.0000 0.0001 -20.0000 0.0000 0.0000 0.0000 0.0000 0.0000 0.0000 0.0000 0.0000 0.0000 0.0000 -0.0001 10.0000 -0.0001 0.0000 -10.0000 0.0000 0.0000 0.0000 0.0000 0.0000 0.0000 0.0000 0.0000 0.0000 0.0000 -0.0001 -0.0001 -0.0001 0.0001 0.0000 0.0000 0.0000 0.0000 0.0000 0.0000 0.0000 0.0000 0.0000 0.0000 0.0000 -0.0001 -10.0001 -0.0001 0.0001 10.0000 0.0000 0.0000 0.0000 0.0000 0.0000 0.0000 0.0000 0.0000 0.0000 -14.4558 0.1788 -90.3271 -169.1732 -79.3630 77.2751 1.1385 1.7457 3.3361 0.0053 -0.3177 -0.3007 0.0001 -0.0001 -20.0000 0.0000 0.0001 20.0000 -0.0003 0.0000 -0.0001 0.0000 0.0000 0.0000 0.0000 0.0000 0.0000 0.0000 -0.0001 -9.9999 -0.0002 0.0001 9.9999 0.0000 0.0000 0.0000 0.0000 0.0000 0.0000 0.0000 0.0000 0.0000 -0.0001 0.0000 0.0000 0.0000 0.0000 0.0000 0.0000 0.0001 0.0000 0.0001 0.0000 0.0000 0.0000 0.0000 0.0000 0.0000 0.0000 10.0001 -0.0001 0.0000 -10.0001 0.0000 0.0000 0.0000 0.0000 0.0000 0.0000 0.0002 0.0000 0.0000 -40.8933 20.7047 22.2076 4.1067 -20.7047 -22.2077 0.0000 0.0000 0.0000 0.0000 0.0004 0.0000 89.1955 -0.5476 -1.3678 1.6339 -0.1728 4.6287 -96.7590 85.6711 177.5189 0.0000 -0.0558 0.0000 0.0000 0.0000 0.0000 -87.1185 -0.8089 1.3631 -1.9117 -0.7524 -4.6448 111.5626 85.4503 -164.1204 0.0000 0.0000 0.0000 0.0000 0.0000 0.0000 
